<?xml version="1.0" encoding="utf-8"?>
<!-- Svg Vector Icons : http://www.onlinewebfonts.com/icon -->
<!DOCTYPE svg PUBLIC "-//W3C//DTD SVG 1.1//EN" "http://www.w3.org/Graphics/SVG/1.1/DTD/svg11.dtd">
<svg version="1.1" xmlns="http://www.w3.org/2000/svg" xmlns:xlink="http://www.w3.org/1999/xlink" x="0px" y="0px" viewBox="0 0 256 256" enable-background="new 0 0 256 256" xml:space="preserve">
<metadata> Svg Vector Icons : http://www.onlinewebfonts.com/icon </metadata>
<g><g><g><path fill="#000000" d="M17.2,15.2c-2.8,0.7-5.1,2.5-6.2,4.8c-0.8,1.7-0.9,4.5-1,88.4c0,62.3,0,87.2,0.4,88.5c0.6,2.5,3.7,5.6,6.2,6.3c1.3,0.4,14.2,0.5,42.6,0.5h40.7l-0.1,4.7l-0.1,4.8l-16.4,0.2c-14.4,0.2-16.6,0.3-18,1.1c-3,1.5-5,3.5-6.5,6.6l-1.5,3l-0.2,8.7l-0.2,8.7H128h71.1l-0.2-8.7l-0.2-8.7l-1.6-3.1c-1.8-3.5-4.7-6.1-7.8-7.1c-1.1-0.3-6.5-0.5-14.9-0.5h-13.2v-4.8v-4.8h38.2c26.5,0,38.7-0.1,40-0.5c2.4-0.7,5.5-3.8,6.2-6.3c0.4-1.3,0.5-26.2,0.4-88.5c-0.1-84.4-0.2-86.7-1-88.5c-1.2-2.3-3.9-4.2-6.8-4.8C234.6,14.3,20.1,14.4,17.2,15.2z M236.6,109.3v84.9H128H19.4l-0.1-84.4c0-46.4,0-84.7,0.1-85c0.1-0.5,22.1-0.6,108.7-0.5l108.5,0.1L236.6,109.3L236.6,109.3z M151.5,208.5v4.8h-21.2h-21.2v-4.8v-4.8h21.2h21.2V208.5z M186.8,223c1.7,0.6,2.6,2.7,2.6,6.2v3H128H66.7v-3c0-3.4,0.9-5.6,2.4-6.2C70.5,222.5,185.3,222.4,186.8,223z"/><path fill="#000000" d="M36.7,33.9c-3.6,0.7-6.2,3-7.3,6.5c-0.7,2.2-0.7,130.4,0,133.1c0.6,2.4,3.7,5.4,6.3,6.1c2.7,0.8,182.1,0.8,184.8,0c2.5-0.8,5.6-3.8,6.3-6.1c0.7-2.7,0.7-131,0-133.1c-0.8-2.4-2.5-4.5-4.7-5.6l-1.9-1l-90.9,0C79.2,33.6,37.5,33.7,36.7,33.9z M217.9,106.9l0.1,63.6H128H38.1v-63.3c0-34.9,0.1-63.5,0.3-63.7c0.1-0.2,40.6-0.3,89.8-0.2l89.5,0.1L217.9,106.9z"/><path fill="#000000" d="M75.1,63c-3.2,1.2-6.3,4.3-7.5,7.6c-1,2.5-1,3.3-1,42.3c0,30.9,0.1,40,0.6,40.9c0.3,0.6,1.3,1.5,2.2,1.9c1.5,0.8,5.3,0.8,58.6,0.8c53.3,0,57.1,0,58.6-0.8c0.9-0.4,1.8-1.3,2.2-1.9c0.5-0.9,0.6-10.1,0.6-40.9c0-39.1,0-39.8-1-42.3c-1.2-3.3-4.2-6.3-7.6-7.6c-2.5-1-3.1-1-53-0.9C78.5,62.1,77.4,62.1,75.1,63z M177.4,71.8c2.2,0.8,2.8,2.6,2.8,8.7v5.1H128H75.9v-5c0-6,0.5-7.8,2.5-8.6C80.3,71.1,175,71,177.4,71.8z M180.1,121.1v25.8H128H75.9v-25.8V95.3H128h52.1V121.1z"/></g></g></g>
</svg>