<svg width="360" height="61" viewBox="0 0 360 61" fill="none" xmlns="http://www.w3.org/2000/svg">
<path fill-rule="evenodd" clip-rule="evenodd" d="M0 7.80364C15.9067 -1.45713 39.2875 -3.54336 60.8324 7.42231C63.0441 17.9578 55.5047 38.8436 45.7264 48.3876C38.0999 45.2498 33.317 40.9354 29.0843 36.3377C33.4423 35.9564 38.198 37.0568 42.1583 38.6257C47.8945 32.884 51.1957 21.3952 51.5661 12.957C34.1995 5.94059 14.0328 8.82233 1.12763 17.6745L0 7.80364ZM30.1738 60.9877L38.9334 55.4203C28.1745 49.3137 18.941 41.3331 14.4522 31.326C22.8687 26.2271 31.8135 26.3252 37.8765 27.6271L41.4447 19.1944C27.0523 16.4706 13.0359 19.0745 3.18134 28.1392C8.86855 41.5128 18.3091 54.6522 30.1738 60.9877Z" fill="url(#paint0_linear_390_47646)"/>
<path fill-rule="evenodd" clip-rule="evenodd" d="M128.666 27.9118H107.448V20.1436H128.519C129.255 20.1409 129.96 19.8473 130.48 19.327C131.001 18.8063 131.295 18.1014 131.298 17.3654V15.1101H102.284V45.8831C112.057 45.8831 121.857 45.8232 131.701 45.8232V43.5679C131.698 42.832 131.404 42.1271 130.884 41.6068C130.363 41.0866 129.658 40.793 128.922 40.7897H107.459V32.9398H125.899C126.636 32.9387 127.341 32.6451 127.862 32.1249C128.383 31.6041 128.676 30.8981 128.677 30.1616V27.9118H128.666ZM245.243 27.9118H224.025V20.1436H245.096C245.832 20.1409 246.537 19.8473 247.057 19.327C247.578 18.8063 247.872 18.1014 247.874 17.3654V15.1101H218.861V45.8831C228.634 45.8831 238.434 45.8232 248.277 45.8232V43.5679C248.275 42.832 247.981 42.1271 247.46 41.6068C246.94 41.0866 246.235 40.793 245.499 40.7897H224.036V32.9398H242.476C243.212 32.9387 243.918 32.6451 244.439 32.1249C244.959 31.6041 245.252 30.8981 245.254 30.1616V27.9118H245.243ZM67.7578 45.8886V27.8627H88.5346C89.0489 27.8742 89.5598 27.781 90.037 27.5898C90.5143 27.3981 90.9479 27.1121 91.3118 26.7487C91.6757 26.3854 91.9622 25.9523 92.1539 25.4751C92.3462 24.9984 92.4399 24.4875 92.4296 23.9732C92.4127 23.4486 92.2923 22.9322 92.0755 22.4534C91.8587 21.9751 91.5498 21.5442 91.1663 21.1857C90.7828 20.8267 90.3323 20.5473 89.8404 20.3626C89.3485 20.1785 88.8255 20.093 88.3004 20.1109H70.5578C69.8366 20.0995 69.1491 19.8026 68.6463 19.2846C68.144 18.7665 67.8673 18.0708 67.8777 17.3491V15.1101H88.3331C90.4946 15.0622 92.5985 15.8063 94.2496 17.2025C95.9002 18.5987 96.9832 20.5506 97.2948 22.6898C97.6064 24.829 97.1242 27.0086 95.9405 28.8172C94.7562 30.6263 92.9515 31.9391 90.8662 32.5095L97.9098 45.5399H95.66C94.1292 45.5399 92.0809 45.1532 91.3455 43.7586L85.6202 32.8636H72.7913V43.5352C72.7913 44.8372 71.5438 45.9049 70.0131 45.9049L67.7578 45.8886ZM170.482 15.1101V43.1103C170.484 43.8474 170.779 44.5534 171.3 45.0736C171.822 45.5944 172.528 45.8875 173.265 45.8886H175.515V17.8938C175.513 17.1573 175.221 16.4508 174.7 15.9289C174.179 15.4076 173.474 15.1134 172.737 15.1101H170.482ZM209.567 15.1101V43.1103C209.57 43.8474 209.865 44.5534 210.386 45.0736C210.908 45.5944 211.614 45.8875 212.351 45.8886H214.601V17.8938C214.599 17.1573 214.307 16.4508 213.786 15.9289C213.265 15.4076 212.56 15.1134 211.823 15.1101H209.567ZM298.634 20.1436V43.1103C298.637 43.8474 298.932 44.5534 299.453 45.0736C299.975 45.5944 300.681 45.8875 301.418 45.8886H303.668V20.1436H315.315V17.8938C315.313 17.1573 315.02 16.4508 314.5 15.9289C313.979 15.4076 313.273 15.1134 312.536 15.1101H286.873V17.3872C286.876 18.1231 287.169 18.828 287.69 19.3488C288.21 19.8691 288.915 20.1627 289.651 20.1654L298.634 20.1436ZM253.845 45.8613V15.1101L259.352 15.1428L276.583 38.2784V17.8884C276.585 17.1524 276.879 16.4475 277.4 15.9273C277.92 15.407 278.625 15.1134 279.361 15.1101H281.611V45.8886H276.419L258.878 22.3172V43.0885C258.876 43.824 258.581 44.5283 258.061 45.048C257.54 45.5677 256.835 45.8602 256.1 45.8613H253.845ZM181.001 30.4612C181.028 38.5017 188.153 45.8613 196.254 45.8613H205.073V43.5897C205.073 42.851 204.781 42.1423 204.261 41.6177C203.74 41.0931 203.034 40.7957 202.295 40.7897H196.477C190.719 40.7897 185.914 36.3336 186.012 30.5756V17.8884C186.012 17.1491 185.72 16.4399 185.2 15.9142C184.68 15.389 183.973 15.09 183.234 15.0829H180.979L181.012 30.4558L181.001 30.4612ZM144.96 32.9998C142.613 32.9638 140.375 32.0045 138.731 30.3288C137.087 28.6532 136.17 26.3968 136.179 24.0495C136.179 19.1031 140.204 15.0883 144.895 15.0883H164.418V17.3872C164.417 18.1248 164.124 18.8319 163.604 19.3543C163.083 19.8767 162.378 20.172 161.64 20.1763H145.298C144.761 20.1398 144.223 20.2128 143.715 20.3904C143.207 20.5685 142.742 20.8474 142.345 21.2108C141.949 21.5741 141.63 22.0143 141.409 22.5046C141.188 22.9943 141.068 23.5244 141.057 24.062C141.047 24.5997 141.146 25.1341 141.348 25.6325C141.551 26.1304 141.852 26.5826 142.235 26.9612C142.616 27.3392 143.072 27.6361 143.572 27.8333C144.073 28.0305 144.607 28.1237 145.145 28.1079C145.503 28.0948 145.859 28.1536 146.193 28.2817C146.528 28.4091 146.833 28.6025 147.09 28.8509C147.348 29.0988 147.554 29.3962 147.694 29.7258C147.834 30.0548 147.907 30.4089 147.907 30.7663V33.027H144.938L144.96 32.9998ZM156.819 27.9554H153.85V30.2161C153.851 30.5734 153.923 30.927 154.063 31.256C154.203 31.5845 154.408 31.8819 154.665 32.1298C154.922 32.3776 155.226 32.5716 155.56 32.6996C155.894 32.8276 156.25 32.887 156.607 32.8745C157.139 32.8674 157.667 32.9671 158.16 33.1681C158.653 33.3691 159.1 33.6671 159.475 34.0446C159.851 34.4216 160.147 34.8704 160.345 35.3645C160.544 35.8581 160.641 36.387 160.631 36.9192C160.621 37.4515 160.504 37.976 160.288 38.462C160.071 38.9484 159.759 39.3859 159.37 39.7487C158.981 40.112 158.523 40.3931 158.023 40.5756C157.522 40.7581 156.991 40.8387 156.46 40.8115H139.354C138.616 40.8158 137.909 41.1122 137.389 41.6357C136.868 42.1597 136.576 42.8679 136.576 43.6061V45.8668H156.906C161.575 45.8668 165.595 41.852 165.595 36.9056C165.599 34.5626 164.682 32.3123 163.039 30.641C161.396 28.9702 159.162 28.0131 156.819 27.9771V27.9554Z" fill="white"/>
<path fill-rule="evenodd" clip-rule="evenodd" d="M360 15.2516L344.6 30.6463L359.979 46.0192H352.859L341.043 34.2035L329.228 46.0192H322.113L353.164 14.9684H359.701L359.984 15.2516H360ZM336.783 22.7856L328.966 14.9684H321.852L331.259 24.3817C331.783 24.9003 332.489 25.1906 333.226 25.1906C333.962 25.1906 334.669 24.9003 335.193 24.3817L336.783 22.7856Z" fill="url(#paint1_linear_390_47646)"/>
<defs>
<linearGradient id="paint0_linear_390_47646" x1="42.4797" y1="32.7696" x2="-1.10585" y2="18.6714" gradientUnits="userSpaceOnUse">
<stop stop-color="#2055F1"/>
<stop offset="1" stop-color="#00C2FE"/>
</linearGradient>
<linearGradient id="paint1_linear_390_47646" x1="353.316" y1="35.402" x2="320.751" y2="22.5077" gradientUnits="userSpaceOnUse">
<stop stop-color="#2055F1"/>
<stop offset="1" stop-color="#00C2FE"/>
</linearGradient>
</defs>
</svg>
