<svg width="49" height="48" viewBox="0 0 49 48" fill="none" xmlns="http://www.w3.org/2000/svg">
<path fill-rule="evenodd" clip-rule="evenodd" d="M0 6.13912C12.5137 -1.14627 30.9072 -2.78762 47.8565 5.83914C49.5964 14.1273 43.6652 30.5579 35.9727 38.0619C29.973 35.5977 26.2103 32.2036 22.8804 28.5866C26.3088 28.2866 30.0501 29.1523 33.1657 30.3865C37.6783 25.8696 40.2754 16.8315 40.5668 10.1932C26.9045 4.67348 11.0395 6.94052 0.887103 13.9045L0 6.13912ZM23.7375 48L30.6286 43.6202C22.1647 38.8161 14.9008 32.5378 11.3695 24.6653C17.9906 20.6542 25.0275 20.7313 29.7973 21.7513L32.5957 15.1387C21.2733 12.996 10.2467 15.0444 2.49418 22.1756C6.97683 32.675 14.4036 43.0331 23.7375 48Z" fill="url(#paint0_linear_769_12079)"/>
<defs>
<linearGradient id="paint0_linear_769_12079" x1="33.4185" y1="25.801" x2="-0.869961" y2="14.7102" gradientUnits="userSpaceOnUse">
<stop stop-color="#2055F1"/>
<stop offset="1" stop-color="#00C2FE"/>
</linearGradient>
</defs>
</svg>
