<svg width="81" height="80" viewBox="0 0 81 80" fill="none" xmlns="http://www.w3.org/2000/svg">
<path fill-rule="evenodd" clip-rule="evenodd" d="M0 10.2364C20.8655 -1.9113 51.535 -4.64811 79.7964 9.73624C82.6975 23.5561 72.8079 50.9526 59.9813 63.4719C49.9772 59.356 43.7033 53.6966 38.1511 47.6656C43.8676 47.1654 50.1059 48.6088 55.3008 50.6668C62.8253 43.1352 67.1556 28.065 67.6415 16.9963C44.8609 7.79261 18.4074 11.5727 1.47917 23.1845L0 10.2364ZM39.5802 80L51.0705 72.6971C36.9577 64.6867 24.8457 54.2182 18.9576 41.0915C29.9978 34.4033 41.7311 34.5319 49.6843 36.2398L54.3647 25.1782C35.4857 21.6053 17.0997 25.021 4.17311 36.9115C11.6332 54.454 24.0168 71.6895 39.5802 80Z" fill="#8133ff"/>
</svg>
