<svg width="24" height="24" viewBox="0 0 24 24" fill="none" xmlns="http://www.w3.org/2000/svg">
    <path d="M22 12c0-5.52-4.48-10-10-10S2 6.48 2 12s4.48 10 10 10" stroke="#C3C5D9" stroke-width="1.5" stroke-linecap="round" stroke-linejoin="round"/>
    <path d="M8 3h1a28.424 28.424 0 0 0 0 18H8M15 3c.97 2.92 1.46 5.96 1.46 9" stroke="#C3C5D9" stroke-width="1.5" stroke-linecap="round" stroke-linejoin="round"/>
    <path d="M3 16v-1c2.92.97 5.96 1.46 9 1.46M3 9a28.424 28.424 0 0 1 18 0" stroke="#C3C5D9" stroke-width="1.5" stroke-linecap="round" stroke-linejoin="round"/>
    <path d="M18.259 18.111a.453.453 0 0 0-.114 0A1.556 1.556 0 0 1 18.202 15a1.556 1.556 0 0 1 .057 3.111zM21.403 21.246a4.719 4.719 0 0 1-3.201 1.245A4.719 4.719 0 0 1 15 21.246c.047-.446.332-.883.84-1.225 1.302-.865 3.43-.865 4.722 0 .508.342.793.779.841 1.225z" stroke="#C3C5D9" stroke-linecap="round" stroke-linejoin="round"/>
</svg>
