<svg width="29" height="28" viewBox="0 0 29 28" fill="none" xmlns="http://www.w3.org/2000/svg">
    <path d="M24.416 11.888h-3.371a5.024 5.024 0 0 1-5.017-5.017V3.5a1.17 1.17 0 0 0-1.166-1.167H9.915c-3.593 0-6.498 2.333-6.498 6.498v10.337c0 4.165 2.905 6.498 6.498 6.498h9.17c3.593 0 6.498-2.333 6.498-6.498v-6.113a1.17 1.17 0 0 0-1.166-1.167zm-9.59 6.522-2.333 2.333a.78.78 0 0 1-.292.187.784.784 0 0 1-.653 0 .772.772 0 0 1-.257-.175c-.011-.012-.023-.012-.023-.024l-2.333-2.333a.88.88 0 0 1 0-1.237.88.88 0 0 1 1.236 0l.829.852v-4.888c0-.479.396-.875.875-.875.478 0 .875.396.875.875v4.888l.84-.84a.88.88 0 0 1 1.236 0 .88.88 0 0 1 0 1.237z" fill="#fff"/>
    <path d="M20.835 10.279c1.109.012 2.649.012 3.967.012.665 0 1.015-.782.548-1.249-1.68-1.691-4.69-4.736-6.416-6.463-.479-.478-1.307-.152-1.307.513v4.072c0 1.703 1.447 3.115 3.208 3.115z" fill="#fff"/>
</svg>
