<svg width="24" height="24" viewBox="0 0 24 24" fill="none" xmlns="http://www.w3.org/2000/svg">
    <path d="M12 19c2.21 0 4-1.567 4-3.5S14.21 12 12 12s-4 1.567-4 3.5S9.79 19 12 19z" fill="#fff"/>
    <path d="M18.28 9.53V8.28C18.28 5.58 17.63 2 12 2S5.72 5.58 5.72 8.28v1.25C2.92 9.88 2 11.3 2 14.79v1.86C2 20.75 3.25 22 7.35 22h9.3c4.1 0 5.35-1.25 5.35-5.35v-1.86c0-3.49-.92-4.91-3.72-5.26zM12 18.74c-1.67 0-3.02-1.36-3.02-3.02 0-1.67 1.36-3.02 3.02-3.02a3.03 3.03 0 0 1 3.02 3.02c0 1.67-1.35 3.02-3.02 3.02zm-4.65-9.3h-.23V8.28c0-2.93.83-4.88 4.88-4.88s4.88 1.95 4.88 4.88v1.17H7.35v-.01z" fill="#fff"/>
    <path d="m9 15.193 2.184 2.194L15.562 13" stroke="#3663FF" stroke-width="1.36" stroke-linecap="round" stroke-linejoin="round"/>
</svg>
