<svg width="80" height="80" viewBox="0 0 80 80" fill="none" xmlns="http://www.w3.org/2000/svg">
    <path d="m16.764 56.498-.008-.006c-.811-.6-1.644-1.653-2.277-2.923-.633-1.27-.98-2.58-.98-3.603v-27c0-1.478.573-3.128 1.579-4.58 1.005-1.45 2.352-2.568 3.742-3.093h.001L37.142 8.43l.004-.001c.71-.26 1.75-.421 2.87-.421 1.122 0 2.16.16 2.87.42l.004.002 18.316 6.86.004.002c1.373.524 2.711 1.641 3.708 3.09.999 1.45 1.561 3.096 1.548 4.57v27.014c0 1.022-.345 2.323-.978 3.588-.631 1.263-1.466 2.325-2.289 2.946l-.003.002L44.87 70.198l-.005.003c-1.278.962-3.041 1.49-4.881 1.49-1.84 0-3.603-.528-4.881-1.49l-.005-.003-18.333-13.7zm30.157-28.843L35.533 39.042l-2.422-2.422a4.182 4.182 0 0 0-5.89 0 4.182 4.182 0 0 0-.004 5.886l.004.005 5.326 5.392.008.007a4.14 4.14 0 0 0 2.945 1.222 4.14 4.14 0 0 0 2.945-1.222l14.324-14.324c1.663-1.62 1.66-4.316.043-5.933a4.181 4.181 0 0 0-5.89 0z" fill="#0CDFAC" stroke="#0CDFAC" stroke-width="3.333"/>
</svg>
