<svg width="211" height="220" viewBox="0 0 211 220" fill="none" xmlns="http://www.w3.org/2000/svg">
<path d="M1.54308 83.4124L204.6 81.9485L210.258 219.998L0.00292969 218.046L1.54308 83.4124Z" fill="#3E69FF"/>
<path d="M1.54297 83.4123L104.627 0.00012207L204.6 81.9484" fill="#3E69FF"/>
<g opacity="0.3">
<path d="M1.54248 83.4123L104.627 0.00012207L204.6 81.9484" fill="#000B3A"/>
</g>
<path d="M0.00305798 218.046C-0.256177 217.817 15.9994 200.067 36.3112 178.399C56.623 156.73 73.2751 139.376 73.5343 139.62C73.7935 139.864 57.538 157.599 37.2261 179.268C16.9143 200.937 0.262293 218.29 0.00305798 218.046Z" fill="#002583"/>
<path d="M210.258 219.998C209.999 220.227 194.17 202.843 174.911 181.159C155.651 159.475 140.234 141.709 140.493 141.511C140.753 141.313 156.581 158.666 175.841 180.35C195.101 202.035 210.517 219.769 210.258 219.998Z" fill="#002583"/>
<g opacity="0.5">
<path d="M204.6 81.9486L102.629 163.394L1.54248 83.4125" fill="#000B3A"/>
</g>
<path d="M11.7757 90.9607L11.4707 31.9011L189.321 27.5399L191.258 92.1653L102.63 162.326L11.7757 90.9607Z" fill="white"/>
<path d="M105.114 141.115C98.8747 141.131 92.7026 139.827 87.0033 137.288C81.304 134.749 76.2064 131.033 72.0454 126.384C67.8845 121.735 64.7545 116.258 62.861 110.313C60.9675 104.368 60.3535 98.09 61.0592 91.8908C62.3796 80.2311 68.2778 69.5735 77.4563 62.2626C86.6347 54.9516 98.3414 51.5862 110.001 52.9067C121.661 54.2271 132.319 60.1253 139.63 69.3037C146.941 78.4821 150.306 90.1887 148.986 101.848C147.769 112.638 142.625 122.603 134.534 129.844C126.444 137.085 115.972 141.097 105.114 141.115ZM104.992 54.1952C96.7552 54.204 88.697 56.595 81.7884 61.0799C74.8799 65.5649 69.4161 71.9522 66.0555 79.4721C62.695 86.992 61.5813 95.3233 62.8486 103.462C64.1158 111.6 67.7101 119.199 73.1979 125.341C78.6858 131.483 85.8331 135.906 93.7782 138.079C101.723 140.251 110.127 140.078 117.976 137.582C125.826 135.086 132.786 130.373 138.017 124.011C143.248 117.649 146.528 109.91 147.461 101.726C148.097 96.1508 147.629 90.5043 146.081 85.1099C144.534 79.7156 141.938 74.6791 138.443 70.2887C134.948 65.8982 130.621 62.2399 125.711 59.5229C120.8 56.806 115.402 55.0836 109.826 54.4544C108.222 54.2468 106.609 54.1297 104.992 54.1037V54.1952Z" fill="#3E69FF"/>
<path d="M74.9521 103.007L82.3327 93.9493L99.6405 106.438L127.745 73.3174L136.223 80.7589L100.067 122.419L74.9521 103.007Z" fill="#0F4CEA"/>
</svg>
