<svg width="40" height="40" viewBox="0 0 40 40" fill="none" xmlns="http://www.w3.org/2000/svg">
<path d="M23.5799 20C23.5799 21.98 21.9799 23.58 19.9999 23.58C18.0199 23.58 16.4199 21.98 16.4199 20C16.4199 18.02 18.0199 16.42 19.9999 16.42C21.9799 16.42 23.5799 18.02 23.5799 20Z" stroke="#E2E1EE" stroke-width="1.6" stroke-linecap="round" stroke-linejoin="round"/>
<path d="M19.9998 28.27C23.5298 28.27 26.8198 26.19 29.1098 22.59C30.0098 21.18 30.0098 18.81 29.1098 17.4C26.8198 13.8 23.5298 11.72 19.9998 11.72C16.4698 11.72 13.1798 13.8 10.8898 17.4C9.98984 18.81 9.98984 21.18 10.8898 22.59C13.1798 26.19 16.4698 28.27 19.9998 28.27Z" stroke="#E2E1EE" stroke-width="1.6" stroke-linecap="round" stroke-linejoin="round"/>
</svg>
