<svg width="40" height="40" viewBox="0 0 40 40" fill="none" xmlns="http://www.w3.org/2000/svg">
<path d="M22.5299 17.47L17.4699 22.53C16.8199 21.88 16.4199 20.99 16.4199 20C16.4199 18.02 18.0199 16.42 19.9999 16.42C20.9899 16.42 21.8799 16.82 22.5299 17.47Z" stroke="#E2E1EE" stroke-width="1.6" stroke-linecap="round" stroke-linejoin="round"/>
<path d="M25.8198 13.77C24.0698 12.45 22.0698 11.73 19.9998 11.73C16.4698 11.73 13.1798 13.81 10.8898 17.41C9.98984 18.82 9.98984 21.19 10.8898 22.6C11.6798 23.84 12.5998 24.91 13.5998 25.77" stroke="#E2E1EE" stroke-width="1.6" stroke-linecap="round" stroke-linejoin="round"/>
<path d="M16.4199 27.5301C17.5599 28.0101 18.7699 28.2701 19.9999 28.2701C23.5299 28.2701 26.8199 26.1901 29.1099 22.5901C30.0099 21.1801 30.0099 18.8101 29.1099 17.4001C28.7799 16.8801 28.4199 16.3901 28.0499 15.9301" stroke="#E2E1EE" stroke-width="1.6" stroke-linecap="round" stroke-linejoin="round"/>
<path d="M23.5104 20.7C23.2504 22.11 22.1004 23.26 20.6904 23.52" stroke="#E2E1EE" stroke-width="1.6" stroke-linecap="round" stroke-linejoin="round"/>
<path d="M17.47 22.53L10 30" stroke="#E2E1EE" stroke-width="1.6" stroke-linecap="round" stroke-linejoin="round"/>
<path d="M30.0003 10L22.5303 17.47" stroke="#E2E1EE" stroke-width="1.6" stroke-linecap="round" stroke-linejoin="round"/>
</svg>
